# xmcd
#
# Track frame offsets:
# 150
# 12729
# 19699
# 31761
# 44533
# 53911
# 67278
# 77924
# 88274
# 102156
# 115308
# 125371
# 138952
# 150158
# 162979
#
# Disc length: 2319 seconds
#
# Revision: 0
# Processed by: cddbd v1.5.2PL0 Copyright (c) Steve Scherf et al.
# Submitted via: Audion 3.0.2 (http://www.panic.com/audion/)
#
DISCID=c5090d0f
DTITLE=Compilation - Country Praise
DYEAR=1900
DGENRE=
TTITLE0=Unclouded day, The
TTITLE1=Old Time Religion
TTITLE2=Take the world But Give Me JesusHobo Heaven
TTITLE3=Hobo HeavenBoat Of Life
TTITLE4=Boat Of Life
TTITLE5=When I Lay My Burden DownGood Old Bible, The
TTITLE6=Good Old Bible, The
TTITLE7=Somebody Bigger Than You And I
TTITLE8=Will There Be Stars In My Crown
TTITLE9=Halelujah Special
TTITLE10=If You Believe
TTITLE11=Chapel In The Moonlight
TTITLE12=How Beautiful Heaven Must Be
TTITLE13=Driftin' Too Far From The Shore
TTITLE14=Leaning On THe Everlasting Arm
EXTD=
EXTT0=
EXTT1=
EXTT2=
EXTT3=
EXTT4=
EXTT5=
EXTT6=
EXTT7=
EXTT8=
EXTT9=
EXTT10=
EXTT11=
EXTT12=
EXTT13=
EXTT14=
PLAYORDER=
